<?xml version="1.0" encoding="utf-8"?>
<!-- Generator: Adobe Illustrator 17.1.0, SVG Export Plug-In . SVG Version: 6.00 Build 0)  -->
<!DOCTYPE svg PUBLIC "-//W3C//DTD SVG 1.1//EN" "http://www.w3.org/Graphics/SVG/1.1/DTD/svg11.dtd">
<svg version="1.1" id="Movies" xmlns="http://www.w3.org/2000/svg" xmlns:xlink="http://www.w3.org/1999/xlink" x="0px" y="0px"
	 viewBox="0 0 1010 1010" enable-background="new 0 0 1010 1010" xml:space="preserve">
<linearGradient id="movies-back_1_" gradientUnits="userSpaceOnUse" x1="505" y1="1010" x2="505" y2="-1.257285e-08">
	<stop  offset="0" style="stop-color:#438BF0"/>
	<stop  offset="1" style="stop-color:#2DCCD4"/>
</linearGradient>
<path id="movies-back" fill="url(#movies-back_1_)" d="M1010,783.4561C1010,908.0537,908.7705,1010,785.0664,1010H224.9502
	C101.2124,1010,0,908.0537,0,783.4561V226.5435C0,101.9414,101.2124,0,224.9502,0h560.1162C908.7705,0,1010,101.9414,1010,226.5435
	V783.4561z"/>
<g id="movies-movies">
	<linearGradient id="SVGID_1_" gradientUnits="userSpaceOnUse" x1="505" y1="328.2954" x2="505" y2="-1.319040e-08">
		<stop  offset="0" style="stop-color:#E6E6E6"/>
		<stop  offset="1" style="stop-color:#FFFFFF"/>
	</linearGradient>
	<path fill="url(#SVGID_1_)" d="M798.7822,0H211.2344C94.772,0,0,94.751,0,211.2217v117.0737h1010V211.2217
		C1010,94.751,915.2539,0,798.7822,0z"/>
	<linearGradient id="SVGID_2_" gradientUnits="userSpaceOnUse" x1="505" y1="327.2793" x2="505" y2="-8.434654e-09">
		<stop  offset="0" style="stop-color:#212121"/>
		<stop  offset="1" style="stop-color:#545454"/>
	</linearGradient>
	<path fill="url(#SVGID_2_)" d="M62.6191,61.2744l97.7564,96.5845L0,316.291V211.2217c0-17.4927,2.1665-34.458,6.1963-50.7241
		l2.6807-2.6387l-1.5762-1.5767C17.147,119.7798,36.5107,87.1553,62.6191,61.2744z M211.2344,0
		c-7.503,0-14.896,0.4004-22.1963,1.1548l157.5596,155.6714L174.0742,327.2793h151.4986l172.5229-170.4531L339.3389,0H211.2344z
		 M1009.7217,200.1992L881.0693,327.2793H1010V211.2217C1010,207.5205,1009.8984,203.8496,1009.7217,200.1992z M541.3506,0
		l158.7656,156.8262L527.5674,327.2793h151.5068l172.54-170.4531L692.8574,0H541.3506z"/>
	<path fill="#B8B8B8" d="M1004.9082,165.231c-1.2812-5.6861-2.7148-11.3174-4.4346-16.8223H9.5513
		c-1.7198,5.5049-3.1783,11.1362-4.4424,16.8223H1004.9082z"/>
</g>
</svg>
